# xmcd
#
# Track frame offsets:
#	150
#	14038
#	24026
#	36853
#	48434
#	62285
#	73406
#	84170
#	94124
#	105999
#	119281
#	131669
#	143313
#	153109
#	163060
#	173039
#	185629
#	196017
#	205900
#	217358
#	227148
#	238165
#	249750
#	260672
#	272262
#	284463
#	294581
#	305175
#	314728
#	325136
#	337439
#
# Disc length: 4632 seconds
#
# Revision: 1
# Processed by: cddbd v1.5.2PL0 Copyright (c) Steve Scherf et al.
# Submitted via: audiograbber 1.83.01
#
DISCID=ca12161f
DTITLE=Solomon Burke - Soul Arrives!
DYEAR=1955
DGENRE=R&B
TTITLE0=Christmas Presents
TTITLE1=I'm All Alone
TTITLE2=Why Do Me That Way?
TTITLE3=I'm in Love
TTITLE4=To Thee
TTITLE5=No Man Walks Alone
TTITLE6=Walking in a Dream
TTITLE7=A Picture of You
TTITLE8=You Can Run, But You Can't Hide
TTITLE9=This Is It
TTITLE10=I Need You Tonight
TTITLE11=You Are My One Love
TTITLE12=For You and You Alone
TTITLE13=Don't Cry
TTITLE14=They Always Say
TTITLE15=My Heart is a Chapel
TTITLE16=Leave My Kitten Alone
TTITLE17=Friendship Ring
TTITLE18=Mama, Mama Dear
TTITLE19=Doodle De Doo
TTITLE20=It's All Right
TTITLE21=This Little Ring
TTITLE22=I'm Not Afraid
TTITLE23=You Don't Send Me Anymore - Little Vincent
TTITLE24=Always Together - Little Vincent
TTITLE25=Honk Honk Honk Pt 1 - Little Vincent
TTITLE26=Honk Honk Honk Pt 2 - Little Vincent
TTITLE27=Keep the Magic Working
TTITLE28=How Many Times
TTITLE29=Just Out of Reach
TTITLE30=Be Bop Grandma
EXTD=
EXTT0=
EXTT1=
EXTT2=
EXTT3=
EXTT4=
EXTT5=
EXTT6=
EXTT7=
EXTT8=
EXTT9=
EXTT10=
EXTT11=
EXTT12=
EXTT13=
EXTT14=
EXTT15=
EXTT16=
EXTT17=
EXTT18=
EXTT19=
EXTT20=
EXTT21=
EXTT22=
EXTT23=
EXTT24=
EXTT25=
EXTT26=
EXTT27=
EXTT28=
EXTT29=
EXTT30=
PLAYORDER=
